<svg xmlns="http://www.w3.org/2000/svg" xmlns:xlink="http://www.w3.org/1999/xlink" viewBox="0 0 314.03 158.49"><defs><style>.cls-1{fill:#e2c700;}.cls-2{fill:#100e1e;}.cls-3{fill:#3a2800;}.cls-4{fill:#aa9500;}.cls-5{fill:#c1b033;}.cls-6,.cls-7{fill:none;stroke:#fff;stroke-miterlimit:10;}.cls-7{stroke-dasharray:3.76 3.76;}.cls-8{fill:#2b2b2b;}.cls-9{fill:#555;}.cls-10{fill:url(#linear-gradient);}.cls-11{fill:#1b1b1b;}.cls-12{fill:#9f635a;}.cls-13{fill:#84514c;}.cls-14{fill:#594c00;}.cls-15{fill:#837300;}.cls-16{fill:url(#linear-gradient-2);}.cls-17{fill:#b19c00;}</style><linearGradient id="linear-gradient" x1="190.56" y1="53.7" x2="213.7" y2="53.7" gradientUnits="userSpaceOnUse"><stop offset="0" stop-opacity="0"/><stop offset="1" stop-color="#fff" stop-opacity="0.2"/></linearGradient><linearGradient id="linear-gradient-2" x1="95.38" y1="52.86" x2="129.18" y2="52.86" xlink:href="#linear-gradient"/></defs><title>smallCollab</title><g id="Layer_2" data-name="Layer 2"><g id="main"><g id="webpage"><g id="rdmShape2"><path id="_2" data-name="2" class="cls-1" d="M272,126.68c12.5-.59,18.91-15.69,20.13-9.92,2.89,13.7-18.62,44.48-32.18,36.65C254.06,150,249.09,127.75,272,126.68Z"/><path id="_1" data-name="1" class="cls-1" d="M308.18,87.12c-13.78,33.27-48.57,26.94-64.36,60.45-13.72,29.13-65-13.79-65-50.84,0-49.85,52-10.89,79.93-35.16C312.54,14.93,322.36,52.89,308.18,87.12Z"/></g><g id="rdmShape1"><path id="_2-2" data-name="2" class="cls-1" d="M146.75,99.43c-2.8,14.49-17.82,32.23-18.18,38.72-.25,4.35,9.63,12.26,16.92,6.84,14.77-11,11.71-37.45,8.82-43.76S147.83,93.85,146.75,99.43Z"/><g id="_1-2" data-name="1"><path class="cls-1" d="M152.06,74.8c-16.2,39.13-30.72,83.69-74.27,83.69S0,129.67,0,86.11C0,27.5,51.91,56.31,84.81,27.77,148-27.06,168.73,34.56,152.06,74.8Z"/></g></g><rect id="allFFloor" class="cls-2" x="16.15" y="145.37" width="287.56" height="0.35"/><g id="Indvfloor"><rect id="_2-3" data-name="2" class="cls-2" x="87.61" y="145.04" width="36.6" height="0.84"/><rect id="_1-3" data-name="1" class="cls-2" x="43.82" y="145.04" width="36.6" height="0.84"/></g><g id="plant2"><path class="cls-3" d="M258.61,145.31a14.16,14.16,0,0,0,14.12-13H244.49A14.16,14.16,0,0,0,258.61,145.31Z"/><path class="cls-3" d="M272.62,129h-28a14,14,0,0,0-.15,1.85h28.32A14,14,0,0,0,272.62,129Z"/><path id="laeaf" class="cls-4" d="M265.64,42.09C266.76,38.2,263.87,5,249.3,24.86s-13.14,54.21,1.36,58.45-2.44,14-10.57,12.62c-9.22-1.61-3.77,27.87,19.51,24.43s20.91-15.7,16-25.18,13.08-25.73,9.92-32C281.24,54.76,262.42,53.25,265.64,42.09Z"/><path id="stem" class="cls-3" d="M268.26,67.44c-1.25,0-5.47,5.58-7.21,7.93V58.32H259.6v46.3c-1.38-2-4.23-5.23-4.7-5.23s-1.12.67,0,1.33c.87.51,3.42,4.06,4.7,5.44v23.11h1.45V76.87c1.84-2.42,6.56-8,6.88-8.43S269.78,67.38,268.26,67.44Z"/></g><g id="plant1"><path id="leaf3" class="cls-3" d="M63.89,86.09c-11.38,10.85-29.37,22.75-28.71,37.83.18,4-2.84,8.22,2.25,6.48a30.43,30.43,0,0,0,3.19-1.32c-1.13.22-1.6-.53-.54-1.85S62.23,93,62.23,93c1.26-.53,2.85.53,1.52,1.19s-21.4,33.64-23.13,34.92c14-6.7,19.21-22.94,30.69-36.77C72.51,90.87,75.26,75.24,63.89,86.09Z"/><path id="leaf2" class="cls-5" d="M44.11,87.72c-.37-7.58-5.5-3.36-6.86-1.85-14.63,16.31-6.71,41.76-6,43.42.32.76,1,2.61,6.17,1.11S44.49,95.31,44.11,87.72Zm-7.79,41.4c-1.55-.69.2-36.27,1.9-37.34C40.74,90.19,39.15,130.4,36.32,129.12Z"/><path id="leaf1" class="cls-4" d="M16.79,97.33c-7.23-4.32-11,1.5-11.11,5.34s23,25.53,24.52,26.94c0,0,2.73,3.8,4.76,0C39,122,24,101.66,16.79,97.33Zm16.58,31.75c.36-.61-21.16-25.31-21.95-25.7,0,0,.17-.49,1.05-.71s22,25.27,22.05,25.71S33,129.7,33.37,129.08Z"/><g id="vase"><path class="cls-3" d="M33.66,145.19a14.18,14.18,0,0,0,14.13-13.05H19.54A14.18,14.18,0,0,0,33.66,145.19Z"/><path class="cls-3" d="M47.68,128.9h-28a14.28,14.28,0,0,0-.15,1.86H47.82A14.28,14.28,0,0,0,47.68,128.9Z"/></g></g><g id="linesEtc"><g id="lines"><path class="cls-6" d="M102.84,19.54c-.08.34-.2,1-.34,2"/><path class="cls-7" d="M102,25.25c-.77,7.19-1,17.83,5,13.39,6.93-5.19,19.31-4.48,22.56,1.41"/><path class="cls-6" d="M130.2,41.8a7.21,7.21,0,0,1,.12,2"/></g><path id="folder" class="cls-8" d="M108.32,14.48V24.92h-11V9h6.5C105.8,11.42,108.32,14.48,108.32,14.48Z"/><path id="folder-2" data-name="folder" class="cls-9" d="M107,15.58V26H96V10.1h6.5C104.45,12.52,107,15.58,107,15.58Z"/><circle id="dot" class="cls-9" cx="110.74" cy="36.24" r="2.42"/></g><g id="chair"><path class="cls-8" d="M211.89,72.18a17,17,0,1,0,17,17A17,17,0,0,0,211.89,72.18Zm4.94,7.41H207V76.94h9.88Z"/><path id="_2-4" data-name="2" class="cls-8" d="M223.33,101.76l-3.44,1.77s14.05,40.46,14.27,41,.48.55,1.25.49C236.5,144.91,224,104.67,223.33,101.76Z"/><path id="_1-4" data-name="1" class="cls-8" d="M200.63,101.76l3.44,1.77s-14,40.46-14.26,41-.49.55-1.26.49C187.46,144.91,199.93,104.67,200.63,101.76Z"/></g><g id="pc"><polygon id="light" class="cls-10" points="213.53 68.92 190.56 61.67 191 45.07 213.7 38.49 213.53 68.92"/><rect id="board" class="cls-11" x="205.1" y="35.5" width="41.34" height="34.72"/><path id="stand" class="cls-9" d="M231.46,76.25V63.71h-.13a7.56,7.56,0,1,0-11.12,0h-.13V76.25h-4.61v2.27h20.6V76.25Z"/></g><g id="table"><path id="_2-5" data-name="2" class="cls-11" d="M209.2,143.79c.57,1.51-3.53,1.61-4.23.45-.3-.49-37.57-63.32-37.57-63.32l7-.27C175.07,83.56,208.68,142.42,209.2,143.79Z"/><path id="_1-5" data-name="1" class="cls-11" d="M167.45,143.79c-.57,1.51,3.53,1.61,4.23.45.3-.49,37.57-63.32,37.57-63.32l-7-.27C201.58,83.56,168,142.42,167.45,143.79Z"/><rect class="cls-11" x="98.12" y="79.05" width="180.41" height="3.23"/></g><g id="chair1"><g id="_2-6" data-name="2"><path class="cls-8" d="M101.56,101.76l-3.44,1.77s14,40.46,14.27,41,.48.55,1.25.49C114.73,144.91,102.26,104.67,101.56,101.76Z"/></g><g id="_1-6" data-name="1"><path class="cls-8" d="M78.87,101.76l3.43,1.77s-14,40.46-14.26,41-.49.55-1.26.49C65.69,144.91,78.16,104.67,78.87,101.76Z"/></g><path class="cls-8" d="M66.09,78.72c.31,9.71,9.59,32.59,36.52,27.49,1.85-.35,2.24-3.43,1.11-3.33-29.25,2.41-31-20.16-32.82-24.52C69.23,74.37,66,76,66.09,78.72Z"/></g><g id="man1"><path class="cls-12" d="M86.57,133.83c-1.06.33,2.11,3.47,3.14,2.65S91,134.19,92,133.23s-2-3.19-2.92-2S88.45,133.23,86.57,133.83Z"/><path class="cls-13" d="M120.18,136c1.09,3.08,8.06,2.29,4.91-.07-1.19-.9-3.61-7.14-3.7-6.22C121.13,132.44,118.12,130.15,120.18,136Z"/><path id="leftLeg" class="cls-14" d="M94.18,82.29c-.83-.72-20.9.24-20.78,2.15.68,10.3,11.27,18.12,28.74,19,3.4.18,12.54,21.82,17,29,.71,1.15,4.49,1.72,4.06-.88C120.8,117,111.14,96.92,94.18,82.29Z"/><path id="rightLeg" class="cls-15" d="M73.4,84.44c.68,10.3,10.64,17.91,27.93,20.64,3.66.58-9.79,18.52-12.26,26.19-.41,1.29,1.06,4.59,3.09,2.91s20.28-23.81,21.78-26.63,1.32-6.09-.44-7.85S95.23,82,94.18,82.29,73.28,82.53,73.4,84.44Z"/><path id="leftHand" class="cls-13" d="M121,75.19a4.07,4.07,0,0,0-3-4.36c-2.74-.86-3.86-2.07-6.07-2.24-2-.15-15.65,1.61-16.35-.31s-2.44-8.79-2.44-8.79c-1.26.26-8.21,1.1-8.14,1.72.29,2.67.83,13.95,5,14.52s21.46-5.54,21.74-4.75c.79,2.25,4.16,2.13,4.81,5,.08.36,1.51.49,1.15-.56s-1.51-2-1.05-2,2.89.61,3,1.71S121,75.19,121,75.19Z"/><path class="cls-12" d="M89.55,36.25c-1.21-.12-3.52,1.32-5,1.67s-2,5.25,1.73,7.31c.53,1.48,1.72,3.12,2.06,2.35.2-.44.6-1.14.88-1.77,2.87-.28,5.33-2.65,5-3.34C93.57,41.15,99.48,37.26,89.55,36.25Z"/><path id="hair" class="cls-8" d="M84.35,34c.49.49-3.17,3-2,5.16s0,5.62,4.27,6.33c1.94.32-.76-1.34.67-4.37.24-.51-2.65-1.63-1.28-2.77.68-.58,1.48.37,2.13,1.41.26.41-.77,3.57.18,5.69.57,1.26,8.67,1.8,5.89-3C94,42.11,91,42.9,89.51,42c-1.07-.63-1-2.71-.93-3.18.14-1.25,2.83-1.28,6.68-.7,2.08.3,4.9-3.14,1.11-3.71s1.1-4.72-3.09-3.15-2.91-.11-4.56-.16S81.33,31,84.35,34Z"/><path id="shirt" class="cls-4" d="M73.66,86.47c.32,2.11,1.63,11.84,4,9.2s5-10.43,5.78-9.11,21,.76,13.14-3.2c-8.73-4.36,4.17-30.48-6.41-36.13a3.57,3.57,0,0,0-3.05-.43C81.34,49.24,70,62.09,73.66,86.47Z"/><path id="rightHand" class="cls-12" d="M121.72,72.12a4,4,0,0,0-3.64-3.81c-2.84-.4-4.14-1.42-6.35-1.22-2,.19-15.17,4.17-16.18,2.38s-3.86-8.26-3.86-8.26c-1.19.46-7.91,2.44-7.74,3,.73,2.58,3.11,13.62,7.35,13.49s20.25-9,20.65-8.27c1.15,2.1,4.45,1.43,5.57,4.16.14.34,1.58.23,1-.74s-1.81-1.67-1.37-1.81,3,.14,3.26,1.19S121.72,72.12,121.72,72.12Z"/><path class="cls-3" d="M120.37,136.11c-1.4-1,2,4,1.57,5.23-.16.45,1.2.24,1.31-.29s-.43-1,0-1.2.38,1,.94.83,8-1.26,8.43-2.32c.83-2.12-5.92-.89-7.74-3.71C123.9,133.15,124.49,139.1,120.37,136.11Z"/><path class="cls-3" d="M87.85,132.59c.52-1.64-3.14,3.15-4.47,3.13-.48,0,.14,1.21.68,1.15s.79-.7,1.14-.39-.8.66-.49,1.15,3.69,7.23,4.83,7.29c2.27.12-1-5.9,1.11-8.51C91.77,135,86.31,137.44,87.85,132.59Z"/></g><g id="computer"><polygon id="light-2" data-name="light" class="cls-16" points="129.18 42.01 95.38 36.24 95.38 69.47 129.18 57.11 129.18 42.01"/><rect id="keyboard" class="cls-11" x="117.83" y="70.24" width="2.27" height="14.29" transform="translate(196.35 -41.58) rotate(90)"/><g id="monitor"><rect id="stand-2" data-name="stand" class="cls-11" x="136.9" y="67.09" width="2.27" height="20.59" transform="translate(215.42 -60.65) rotate(90)"/><path class="cls-11" d="M130.85,48.91v1.77a13,13,0,0,1,0,26.06V78.5a14.8,14.8,0,0,0,0-29.59Z"/><path class="cls-11" d="M130.85,32.42V62.94a35.95,35.95,0,0,0,0-30.52Z"/><rect class="cls-11" x="128.05" y="28.53" width="2.27" height="38.3"/></g></g><g id="woman1"><path id="leftFoot" class="cls-12" d="M63.45,132.55c-.09.83-.26,6.35,1.41,6.74s2,0,2.38-.53-.83-7.94-1.54-7.67A14.38,14.38,0,0,0,63.45,132.55Z"/><path id="rightFoot" class="cls-12" d="M46.89,134.27c.38.92,1.14,4.2,2.2,4.79s-3.53,1.53-4.06.79-.63-5.19,0-6.24S46.89,134.27,46.89,134.27Z"/><path id="shoe" class="cls-3" d="M44.48,138c-.87-1.48.25,4.44-.66,5.42-.33.35,1,.7,1.32.26s0-1.06.47-1.11,0,1,.52,1.14,7.85,2.07,8.66,1.26c1.6-1.6-5.07-3.19-5.6-6.51C48.91,136.67,47.06,142.35,44.48,138Z"/><path id="shoe-2" data-name="shoe" class="cls-3" d="M63.05,135.63c-1-1.37.76,4.39,0,5.46-.29.39,1.07.58,1.33.11s-.11-1,.34-1.15.08,1,.65,1.06,8,1.17,8.75.27c1.41-1.78-5.4-2.59-6.31-5.82C67.3,133.84,66.12,139.7,63.05,135.63Z"/><path id="leftLeg-2" data-name="leftLeg" class="cls-14" d="M66.09,68.43c1.11,2.21.84,64.38.62,64.82s-2.86,1.91-3.3,1C54.68,116.76,60.5,94.89,58,90.75,55.87,87.12,45,67.07,47.18,67.13S66.09,68.43,66.09,68.43Z"/><path id="rightLeg-2" data-name="rightLeg" class="cls-15" d="M44.67,67.86c-1.29,4.85,2.46,30.07,4.23,31.56.48.41-6.57,20.34-4.41,37.45.2,1.59,4.33,2.64,4.43,0s5.4-32.83,6.29-33.7,1-2,1.41-3.75S68.79,70.9,68.08,70.2,46.83,59.7,44.67,67.86Z"/><path id="hand" class="cls-12" d="M119.76,39.46c-.57-.48-10.41,3.29-11.25,4.8S91.63,48.9,90.39,48s-3.4,5.29-2.56,5.29c8.78,0,19.32-4,20.29-4.76s3.7.39,4.5.31,5.55-.75,4.23-2.91c-.95-1.55-3.35-2.34-2.65-2.65S120.07,39.73,119.76,39.46Z"/><path id="face" class="cls-12" d="M78.57,8.11c-.27-1.32-4.32-1.5-7.58-1s-3.7,4.76-3.79,5.64c0,.46,1,2.42,2.22,4.08v.06L70,21.21c.18,1.32,1.45,1.63,2,.48l1.09-2.49C79.45,17.1,79,10.12,78.57,8.11Z"/><path id="hair-2" data-name="hair" class="cls-8" d="M79.19,2.91C80-.18,75.77,3.14,74,2a2.42,2.42,0,0,0-2.42-.37A6.31,6.31,0,0,0,67.08,0c-3,0-5.42,1.68-5.42,3.75,0,1.82,1.88,3.33,4.36,3.68-1.51,5.51,3.31,9.62,4.88,9.77,1.85.17-1.06-3-2.79-4.5s3.41-.44,3.41-2.56,7,.31,7.77-.09C85.68,6.79,78.4,6,79.19,2.91Z"/><path class="cls-17" d="M69.93,20.11C63,12.87,41.49,53.18,39.9,72.23c-.59,7.1,11.91-7.94,9.4-3.84S50.62,74,50.88,73s1.06,1.34,1.86.6,2.51,1.42,3.83.54,4.24,1.17,4.9.21S63.58,70.24,65,71.3s4.76,4.63,4.23,1.06.22-17.94,6-25c1.16-1.43,10.85,7.54,12.44,6.21s4.5-5.55,3.44-6S76,35.62,76.94,33.34,74.49,19.58,73.4,20.9,71.49,21.73,69.93,20.11Z"/></g></g></g></g></svg>