<svg xmlns="http://www.w3.org/2000/svg" xmlns:xlink="http://www.w3.org/1999/xlink" viewBox="0 0 784.38 274.73"><defs><style>.cls-1{fill:#e2c700;}.cls-2{fill:#100e1e;}.cls-3{fill:#594c00;}.cls-4{fill:#b19c00;}.cls-5{fill:#c1b033;}.cls-10,.cls-11,.cls-6,.cls-7{fill:none;stroke:#d0d1d5;stroke-miterlimit:10;}.cls-7{stroke-dasharray:4.02 4.02;}.cls-8{fill:#2b2b2b;}.cls-9{fill:#555;}.cls-10{stroke-dasharray:4.03 4.03;}.cls-11{stroke-dasharray:4.17 4.17;}.cls-12{fill:#84514c;}.cls-13{fill:#0d0f1c;}.cls-14{fill:url(#linear-gradient);}.cls-15{fill:#1b1b1b;}.cls-16{fill:#14182d;}.cls-17{fill:url(#linear-gradient-2);}.cls-18{fill:#fbfdfe;}.cls-19{fill:#9f635a;}.cls-20{fill:url(#linear-gradient-3);}</style><linearGradient id="linear-gradient" x1="565.15" y1="93.09" x2="605.27" y2="93.09" gradientUnits="userSpaceOnUse"><stop offset="0" stop-opacity="0"/><stop offset="1" stop-color="#fff" stop-opacity="0.2"/></linearGradient><linearGradient id="linear-gradient-2" x1="265.68" y1="93.09" x2="305.8" y2="93.09" xlink:href="#linear-gradient"/><linearGradient id="linear-gradient-3" x1="165.33" y1="91.63" x2="223.93" y2="91.63" xlink:href="#linear-gradient"/></defs><title>teamWork</title><g id="Layer_2" data-name="Layer 2"><g id="main"><g id="flatVector"><g id="rdmShape2"><path id="_2" data-name="2" class="cls-1" d="M698.62,210.29c25.49-1.19,38.56-32,41-20.22,5.89,27.92-38,90.65-65.58,74.7C662.16,257.89,652,212.47,698.62,210.29Z"/><path id="_1" data-name="1" class="cls-1" d="M772.47,129.66c-28.09,67.82-99,54.91-131.17,123.22-28,59.36-132.41-28.12-132.41-103.62,0-101.6,105.87-22.19,162.91-71.67C781.35-17.45,801.37,59.9,772.47,129.66Z"/></g><g id="rdmShape1"><path id="_2-2" data-name="2" class="cls-1" d="M254.38,172.36c-4.86,25.11-30.9,55.87-31.52,67.1-.42,7.55,16.7,21.26,29.34,11.86,25.59-19,20.28-64.92,15.29-75.84S256.25,162.68,254.38,172.36Z"/><path id="_1-2" data-name="1" class="cls-1" d="M263.59,129.66c-28.09,67.82-53.25,145.07-128.75,145.07S0,224.76,0,149.26C0,47.66,90,97.61,147,48.13,256.57-46.91,292.48,59.9,263.59,129.66Z"/></g><rect id="allFFloor" class="cls-2" y="251.89" width="777.59" height="0.52"/><g id="Indvfloor"><rect id="_4" data-name="4" class="cls-2" x="526.46" y="251.42" width="63.45" height="1.46"/><rect id="_3" data-name="3" class="cls-2" x="433.13" y="251.42" width="63.45" height="1.46"/><rect id="_2-3" data-name="2" class="cls-2" x="151.87" y="251.42" width="63.45" height="1.46"/><rect id="_1-3" data-name="1" class="cls-2" x="75.96" y="251.42" width="63.45" height="1.46"/></g><g id="plant2"><path class="cls-3" d="M676.25,251.89a24.56,24.56,0,0,0,24.48-22.62h-49A24.56,24.56,0,0,0,676.25,251.89Z"/><path class="cls-3" d="M700.54,223.65H652a24.38,24.38,0,0,0-.26,3.21h49.1A24.38,24.38,0,0,0,700.54,223.65Z"/><path id="laeaf" class="cls-4" d="M688.43,73c2-6.75-3.06-64.28-28.32-29.88s-22.78,94,2.35,101.33-4.22,24.32-18.31,21.86c-16-2.78-6.55,48.32,33.81,42.36s36.25-27.22,27.76-43.65,22.67-44.61,17.19-55.41C715.47,94.93,682.85,92.3,688.43,73Z"/><path id="stem" class="cls-3" d="M693,116.9c-2.16.07-9.49,9.67-12.5,13.76V101.09H678v80.26c-2.39-3.51-7.33-9.06-8.14-9.06-1,0-2,1.15,0,2.29,1.5.89,5.92,7,8.14,9.43v40.07h2.52V133.25c3.19-4.2,11.37-13.78,11.93-14.61C693.09,117.6,695.62,116.8,693,116.9Z"/></g><g id="plant1"><path id="leaf3" class="cls-3" d="M116.87,149.23C97.15,168,66,188.67,67.11,214.81c.3,6.88-4.92,14.25,3.9,11.22a55.88,55.88,0,0,0,5.52-2.27c-2,.38-2.76-.93-.93-3.22S114,161.15,114,161.15c2.18-.91,4.93.92,2.64,2.07s-37.11,58.31-40.11,60.54c24.19-11.62,33.3-39.77,53.21-63.75C131.81,157.52,136.59,130.43,116.87,149.23Z"/><path id="leaf2" class="cls-5" d="M82.59,152.06c-.65-13.15-9.54-5.83-11.89-3.21-25.37,28.28-11.64,72.38-10.39,75.27.56,1.3,1.68,4.52,10.7,1.91S83.24,165.2,82.59,152.06ZM69.08,223.82c-2.68-1.2.35-62.86,3.31-64.73C76.74,156.34,74,226,69.08,223.82Z"/><path id="leaf1" class="cls-4" d="M35.24,168.72C22.7,161.23,16.13,171.32,16,178s39.9,44.25,42.49,46.7c0,0,4.74,6.58,8.26,0C73.76,211.52,47.77,176.21,35.24,168.72Zm28.74,55c.61-1.07-36.69-43.87-38.07-44.55,0,0,.31-.85,1.84-1.23S65.81,221.77,66,222.53,63.37,224.82,64,223.75Z"/><g id="vase"><path class="cls-3" d="M64.48,251.68A24.56,24.56,0,0,0,89,229.06H40A24.56,24.56,0,0,0,64.48,251.68Z"/><path class="cls-3" d="M88.77,223.44H40.19a24.38,24.38,0,0,0-.26,3.21H89A24.38,24.38,0,0,0,88.77,223.44Z"/></g></g><g id="linesEtc"><g id="lines"><path class="cls-6" d="M540.33,13.91a2.41,2.41,0,0,0,.7,1.82"/><path class="cls-7" d="M544.05,18.36c8.5,5.72,30.24,12,52.11-3.39C627-6.67,615.79,42.84,613.1,62.72"/><path class="cls-6" d="M612.84,64.73c-.08.72-.15,1.38-.19,2"/></g><path id="folder" class="cls-8" d="M560.53,12.36V30.45h-19V2.86h11.27C556.16,7.05,560.53,12.36,560.53,12.36Z"/><path id="folder-2" data-name="folder" class="cls-9" d="M558.19,14.26V32.35h-19V4.77h11.27C553.82,9,558.19,14.26,558.19,14.26Z"/><circle id="dot" class="cls-3" cx="577.07" cy="25.3" r="4.19"/></g><g id="linesEtc-2" data-name="linesEtc"><g id="lines-2" data-name="lines"><path class="cls-6" d="M526.74,33.88a2.52,2.52,0,0,1-.7,1.82"/><path class="cls-10" d="M523.11,38.45c-8.87,6.65-32.3,15-52.19-3.51-12-11.17,4.14,19.69,7.61,37"/><path class="cls-6" d="M478.88,73.92c.1.69.18,1.35.22,2"/></g><path id="folder-3" data-name="folder" class="cls-8" d="M506.55,32.33V50.42h19V22.83H514.31C510.92,27,506.55,32.33,506.55,32.33Z"/><path id="folder-4" data-name="folder" class="cls-9" d="M508.89,34.23V52.32h19V24.73H516.65C513.26,28.93,508.89,34.23,508.89,34.23Z"/><circle id="dot-2" data-name="dot" class="cls-3" cx="490" cy="45.27" r="4.19"/></g><g id="linesEtc-3" data-name="linesEtc"><g id="lines-3" data-name="lines"><path class="cls-6" d="M178.26,33.88c-.09.39-.21,1.07-.36,2"/><path class="cls-11" d="M177.29,40c-1.59,12-3.25,35.54,8.14,27,12.91-9.67,36.73-7.53,40.1,4.86"/><path class="cls-6" d="M225.89,73.91a12.11,12.11,0,0,1,0,2"/></g><path id="folder-5" data-name="folder" class="cls-8" d="M187.77,25.1V43.19h-19V15.6H180C183.4,19.8,187.77,25.1,187.77,25.1Z"/><path id="folder-6" data-name="folder" class="cls-9" d="M185.43,27V45.1h-19V17.51h11.26C181.06,21.7,185.43,27,185.43,27Z"/><circle id="dot-3" data-name="dot" class="cls-3" cx="191.96" cy="62.82" r="4.19"/></g><g id="chair"><path class="cls-8" d="M585.29,125.11a29.51,29.51,0,1,0,29.5,29.51A29.51,29.51,0,0,0,585.29,125.11ZM593.85,138H576.73v-4.58h17.12Z"/><path id="_2-4" data-name="2" class="cls-8" d="M605.12,176.4l-6,3s24.35,70.15,24.73,71.06.84,1,2.18.85C628,251.19,606.34,181.44,605.12,176.4Z"/><path id="_1-4" data-name="1" class="cls-8" d="M565.78,176.4l6,3S547.4,249.6,547,250.51s-.84,1-2.17.85C543,251.19,564.56,181.44,565.78,176.4Z"/></g><g id="woman"><path id="foot2" class="cls-12" d="M574.34,237.33c-1.53,2.29.92,6.27,1.22,6.42s4.28.61,4.89,0,.62-9-1.22-9.63S574.34,237.33,574.34,237.33Z"/><path id="foot1" class="cls-12" d="M555.1,237.62c-1.31,2.42,1.49,6.15,1.81,6.28s4.32.21,4.87-.46-.23-9-2.11-9.47S555.1,237.62,555.1,237.62Z"/><path id="shoe2" class="cls-13" d="M581.14,239.74c1.46-2.6-.27,7.71,1.34,9.36.59.6-1.7,1.26-2.26.51s-.05-1.83-.86-1.9.12,1.78-.87,2-13.51,3.89-14.94,2.52c-2.85-2.72,8.65-5.73,9.45-11.49C573.43,237.67,576.83,247.45,581.14,239.74Z"/><path id="shoe1" class="cls-13" d="M561.66,239c1.45-2.61-.27,7.7,1.34,9.36.58.6-1.71,1.26-2.27.5s0-1.83-.85-1.9.11,1.79-.87,2-13.52,3.88-15,2.52c-2.84-2.73,8.66-5.73,9.46-11.49C553.94,237,557.35,246.72,561.66,239Z"/><path id="trouser" class="cls-3" d="M567.06,139.83c-1.07,1.25-7.09,10.52-4,13.88s-20.24.19-22.78,3.67c-5.35,7.34,14.58,75.21,13.41,79s9.06,1.84,8.45,0-11.69-66-11.46-67.72c.67-5,9.17,1.15,9,6.19s12.22,62,14.67,62.45a17.84,17.84,0,0,0,6.42,0c1.68-.3-13.15-69.55-10.7-69.09s21.16,5.58,29.1,2.06c9.42-4.18,6.21-27.29-1.43-29.27S569.1,137.44,567.06,139.83Z"/><path id="shirt" class="cls-4" d="M572.66,88.46c3.22,3,12.63,5.79,15.13,1.64,1.84-3,13.79,5,15.9,6.72,2.64,2.17,11.77,12.72,8.1,14.7s-8.71,6.51-10.24,4.32-4.28-13.64-4.59-11.35,5.81,34.62-.76,38.14-13-5.6-35.67,8.26c-2.63,1.6,16.2-32.65,6.53-32.65-5.37,0-10.61-1.67-4.64-14.51,3-6.41-4.55,8.86-6.63,8.71S552.94,99,551.41,98.38,569.4,85.46,572.66,88.46Z"/><path id="leftarm" class="cls-12" d="M612.6,108.6c1.19.73,8.89,28.43-.59,28.43s-12.07-.44-15.59-.44c-2.44,0-4.37-11,.23-9.09,20,8.16,3.34-12.72,4.47-12.44C604.82,116,612.6,108.6,612.6,108.6Z"/><path id="face" class="cls-12" d="M589.63,93.33a81.11,81.11,0,0,0-6.08-7.67c1.84-.94,3.11-2.27,4.21-2.47,2.17-.39-1.25-11.25-3.18-14.27s-11.79-.23-14,0-1.39,3-1.39,7.45,3.95,8.32,6.82,9.46l.51.17c2.75,5.5-9.06,11.32-5.57,11.61C574.65,97.92,591.66,96.26,589.63,93.33Z"/><path id="hair" class="cls-3" d="M589.55,75.69a16.62,16.62,0,0,0-2.2-8.11,8.71,8.71,0,1,0-16-4.76,9,9,0,0,0,.14,1.57,9.49,9.49,0,0,0-2.79,2.12c-2.79,3.31-1.93,10.24,1.86,11.38,2.2.67-1.35-5.27,0-6.77s2.92-2.16,3.68-1.83c.12.11.25.23.38.33a1.76,1.76,0,0,1,0,1.5c-1.66,4.57,8,6.2,10.44,4.57,2.87-1.91,1.63,3.24-1.28,4.94s3.14,4.68,5.79,4.52C599.62,84.51,589.75,80,589.55,75.69Z"/><path id="hand" class="cls-12" d="M554.14,97.65c-2.48-1.84-19.51,18.66-29.35,20.59a11.58,11.58,0,0,0-5.14,2,1.34,1.34,0,0,0-1.95-.54c-.25.14-.41.28.38,1.26-.82.53-2.46,1.6-2.88,2s1,1.44,3.49-1.13l.07-.06,0,0a10.31,10.31,0,0,1-2.31,2.74c-.68.24.29,1.65,2.86-1.25l.07-.07a.27.27,0,0,0,.07.08c-.26.59-1.32,2.43-1,2.81s.45.27,2-2a9.82,9.82,0,0,0,7.44,1c6.11-1.85,23.23-12.21,26.12-16C554.12,109.1,556.62,99.48,554.14,97.65Z"/></g><g id="pc"><polygon id="light" class="cls-14" points="604.96 119.47 565.14 106.9 565.91 78.12 605.27 66.71 604.96 119.47"/><rect id="board" class="cls-15" x="590.36" y="61.53" width="71.65" height="60.19"/><path id="stand" class="cls-9" d="M636,132.18V110.43h-.22a13.11,13.11,0,1,0-19.27,0h-.23v21.75h-8v3.93H644v-3.93Z"/><rect id="keyboard" class="cls-16" x="569.85" y="132.16" width="36.57" height="3.95"/></g><g id="chair-2" data-name="chair"><path class="cls-8" d="M302.66,125.11a29.51,29.51,0,1,0,29.5,29.51A29.51,29.51,0,0,0,302.66,125.11ZM311.22,138H294.1v-4.58h17.12Z"/><path id="_2-5" data-name="2" class="cls-8" d="M322.49,176.4l-6,3s24.35,70.15,24.74,71.06.84,1,2.17.85C345.32,251.19,323.71,181.44,322.49,176.4Z"/><path id="_1-5" data-name="1" class="cls-8" d="M283.15,176.4l6,3s-24.35,70.15-24.73,71.06-.84,1-2.18.85C260.32,251.19,281.93,181.44,283.15,176.4Z"/></g><g id="pc-2" data-name="pc"><polygon id="light-2" data-name="light" class="cls-17" points="305.5 119.47 265.68 106.9 266.45 78.12 305.8 66.71 305.5 119.47"/><rect id="board-2" data-name="board" class="cls-15" x="290.89" y="61.53" width="71.65" height="60.19"/><path id="stand-2" data-name="stand" class="cls-9" d="M336.58,132.18V110.43h-.23a13.11,13.11,0,1,0-19.27,0h-.22v21.75h-8v3.93h35.7v-3.93Z"/></g><g id="table"><path id="_2-6" data-name="2" class="cls-15" d="M378.55,249.26c1,2.6-6.12,2.77-7.34.76-.52-.85-65.12-109.76-65.12-109.76l12.07-.46C319.39,144.85,377.64,246.88,378.55,249.26Z"/><path id="_1-6" data-name="1" class="cls-15" d="M310,249.26c-1,2.6,6.11,2.77,7.34.76l65.12-109.76-12.08-.46C369.11,144.85,310.85,246.88,310,249.26Z"/><rect class="cls-15" x="170.08" y="137.03" width="485.41" height="5.6"/></g><g id="computer"><path id="stand-3" data-name="stand" class="cls-9" d="M458.64,132.18V110.43h-.22a13.11,13.11,0,1,0-19.27,0h-.23v21.75h-8v3.93h35.69v-3.93Z"/><rect id="board-3" data-name="board" class="cls-15" x="409.27" y="49.46" width="79.03" height="66.39"/><rect id="screen" class="cls-18" x="415.49" y="56.2" width="66.6" height="52.9"/></g><g id="man2"><path id="leftHand" class="cls-12" d="M488.78,106.1c3.44-2.06,9-9.41,9.77-3s-6.27,8.26-7.54,9.18S488.78,106.1,488.78,106.1Z"/><path class="cls-12" d="M489.73,238.6c-.54,2.38-1.83,5,0,5.92s5.34.47,6-1.38,1.69-5.5,0-5.66S490.65,234.54,489.73,238.6Z"/><path class="cls-3" d="M479.94,158.6c10.14.43,20.93.42,23,1.56s5.27,4.59,3.21,10.55-5.88,68.56-9.24,68.33-8.71,2.53-8,0,6.87-66.49,1.41-66.49-12.38-1.61-14.22-1.15-8.65,65.81-7,67.18-11.8,4.9-10.22,1.53,5.4-61.83,5.33-63.21S448.24,157.26,479.94,158.6Z"/><path id="shoe2-2" data-name="shoe2" class="cls-13" d="M488.84,241.94c-1.94-2.27,1.78,7.5.53,9.44-.45.7,3.08.81,3.48,0s-.31-1.81.47-2,.24,1.76,1.24,1.77,12.86,1.22,14-.41c2.25-3.23-9.62-3.9-11.54-9.39C496,238.38,494.58,248.64,488.84,241.94Z"/><path class="cls-12" d="M459.92,240.12c-.45,2.64-1.14,5.4.69,6.25s5.57.74,6.08-2.12.8-6.54,0-6.19S459.92,240.12,459.92,240.12Z"/><path id="shoe2-3" data-name="shoe2" class="cls-13" d="M459.37,241.82c-1.84-2.34,1.45,7.58.11,9.46-.49.68,2.81.94,3.25.11s-.24-1.81.55-2,.16,1.77,1.16,1.82,13,1.8,14.23.23c2.39-3.13-9.43-4.33-11.11-9.9C466.67,238.59,464.81,248.78,459.37,241.82Z"/><path id="arm" class="cls-12" d="M500.82,121.54c1.19.73,9.4,15.49-.08,15.49s-12.08-.44-15.59-.44c-2.45,0-3.84-11.94.23-9.09,9.17,6.42,9.91-3.82,11-3.54A3.33,3.33,0,0,0,500.82,121.54Z"/><path id="face-2" data-name="face" class="cls-12" d="M478,68.55c-7.22-5.53-10.84,2.84-10.75,6.69a5,5,0,0,0,2.31,3.87l-1.07,0c0,3.67,2,9.75,2.64,9.29.47-.32,4.93-3.91,6.63-6.4.48.07,1,.14,1.46.19C485.91,83,480.18,70.19,478,68.55Z"/><path id="hair-2" data-name="hair" class="cls-8" d="M466.78,56.74c-3.91,1.95-9.75,12-6.37,18.56s13.68,7.12,12.56,3.18-5.63-7.87-3-7.49,8.81,4.68,6.75-2.07c-.69-2.24,10.23,8.25,9-3.93C485.07,58.57,479.16,50.55,466.78,56.74Z"/><path id="shirt-2" data-name="shirt" class="cls-4" d="M487,150.12c1.22,8.84-23.16,5-38.06,4.5s-4.13-34.77-6.42-42.1-13.15-20.89,24.78-31.93c0,0,2.71,4.2,7.55,4.2,16.15,0,16.63,28.63,27.17,35.41,3.33,2.14-10,11.35-14.33,2.56-4.68-9.44-14.18-3.69-3.9,6.82C487.33,133.22,485.79,141.46,487,150.12Z"/></g><g id="chair-3" data-name="chair"><path class="cls-8" d="M463.63,125.11a29.51,29.51,0,1,0,29.5,29.51A29.51,29.51,0,0,0,463.63,125.11ZM472.19,138H455.07v-4.58h17.12Z"/><path id="_2-7" data-name="2" class="cls-8" d="M483.46,176.4l-6,3s24.35,70.15,24.74,71.06.84,1,2.17.85C506.29,251.19,484.68,181.44,483.46,176.4Z"/><path id="_1-7" data-name="1" class="cls-8" d="M444.12,176.4l6,3s-24.35,70.15-24.73,71.06-.84,1-2.18.85C421.29,251.19,442.9,181.44,444.12,176.4Z"/></g><g id="chair1"><path id="_2-8" data-name="2" class="cls-8" d="M176,176.4l-6,3s24.35,70.15,24.73,71.06.84,1,2.18.85C198.87,251.19,177.26,181.44,176,176.4Z"/><path id="_1-8" data-name="1" class="cls-8" d="M136.71,176.4l6,3s-24.35,70.15-24.73,71.06-.84,1-2.18.85C113.87,251.19,135.48,181.44,136.71,176.4Z"/><path class="cls-8" d="M114.57,136.45c.53,16.84,16.62,56.5,63.29,47.66,3.22-.61,3.89-6,1.92-5.78-50.7,4.19-53.71-34.93-56.88-42.5C120,128.91,114.42,131.72,114.57,136.45Z"/></g><g id="man1"><path class="cls-19" d="M150.06,232c-1.83.58,3.67,6,5.44,4.59s2.24-4,4-5.62-3.48-5.54-5.07-3.4S153.32,231,150.06,232Z"/><path class="cls-12" d="M208.33,235.77c1.88,5.36,14,4,8.51-.12-2.06-1.55-6.26-12.37-6.42-10.78C210,229.58,204.76,225.6,208.33,235.77Z"/><path id="leftLeg" class="cls-3" d="M163.25,142.64c-1.44-1.24-36.23.41-36,3.74,1.18,17.84,19.53,31.4,49.83,33,5.88.3,21.73,37.81,29.46,50.26,1.24,2,7.78,3,7-1.54C209.39,202.86,192.65,168,163.25,142.64Z"/><path id="rightLeg" class="cls-3" d="M127.23,146.38c1.18,17.84,18.45,31,48.41,35.77,6.35,1-17,32.1-21.25,45.4-.71,2.22,1.84,7.95,5.35,5s35.16-41.27,37.76-46.16,2.3-10.55-.76-13.61-31.67-30.71-33.49-30.18S127,143.05,127.23,146.38Z"/><path id="leftHand-2" data-name="leftHand" class="cls-12" d="M209.79,130.34a7,7,0,0,0-5.13-7.56c-4.75-1.49-6.68-3.6-10.51-3.89-3.53-.26-27.14,2.8-28.36-.54s-4.23-15.24-4.23-15.24c-2.16.46-14.21,1.92-14.1,3,.51,4.62,1.43,24.18,8.71,25.16s37.2-9.61,37.68-8.24c1.36,3.91,7.2,3.7,8.33,8.7.14.62,2.63.84,2-1s-2.61-3.38-1.82-3.48,5,1.07,5.24,3S209.79,130.34,209.79,130.34Z"/><path class="cls-19" d="M155.22,62.84c-2.09-.22-6.1,2.29-8.62,2.9s-3.57,9.08,3,12.65c.92,2.58,3,5.42,3.58,4.09.34-.77,1-2,1.52-3.08,5-.48,9.25-4.59,8.65-5.79C162.19,71.32,172.43,64.59,155.22,62.84Z"/><path id="hair-3" data-name="hair" class="cls-8" d="M146.22,59c.84.84-5.51,5.15-3.44,8.94s0,9.74,7.41,11c3.35.55-1.33-2.33,1.15-7.57.42-.89-4.59-2.83-2.22-4.82,1.18-1,2.57.65,3.69,2.45.45.72-1.32,6.19.33,9.86,1,2.2,15,3.13,10.2-5.2-.36-.62-5.6.76-8.18-.76-1.85-1.09-1.69-4.7-1.61-5.51.23-2.16,4.89-2.21,11.58-1.22,3.61.54,8.49-5.43,1.91-6.42s1.91-8.18-5.35-5.46-5-.19-7.91-.27S141,53.7,146.22,59Z"/><path id="shirt-3" data-name="shirt" class="cls-4" d="M127.69,149.88c.55,3.66,2.82,20.53,6.95,16s8.67-18.08,10-15.78,36.49,1.3,22.78-5.55c-15.14-7.56,7.24-52.84-11.11-62.63-.73-.4-3-1.71-5.28-.75C141,85.35,121.33,107.63,127.69,149.88Z"/><path id="rightHand" class="cls-19" d="M211,125a7,7,0,0,0-6.3-6.61c-4.93-.69-7.19-2.44-11-2.1-3.53.32-26.31,7.23-28.06,4.13s-6.68-14.33-6.68-14.33c-2.06.8-13.71,4.22-13.41,5.27,1.26,4.47,5.39,23.62,12.72,23.39s35.12-15.6,35.81-14.33c2,3.63,7.72,2.47,9.65,7.21.24.59,2.73.39,1.82-1.29s-3.14-2.9-2.37-3.13,5.12.23,5.65,2.06S211,125,211,125Z"/><path class="cls-13" d="M208.64,235.94c-2.41-1.75,3.49,6.87,2.73,9.05-.28.79,2.08.42,2.27-.49s-.73-1.68,0-2.09.65,1.67,1.62,1.44,13.9-2.17,14.62-4c1.44-3.67-10.26-1.55-13.41-6.44C214.77,230.81,215.8,241.11,208.64,235.94Z"/><path class="cls-3" d="M152.29,229.84c.9-2.84-5.45,5.46-7.76,5.41-.83,0,.25,2.11,1.18,2s1.37-1.22,2-.67-1.37,1.13-.85,2,6.4,12.52,8.38,12.63c3.93.22-1.74-10.23,1.92-14.75C159.07,234.05,149.6,238.25,152.29,229.84Z"/></g><g id="computer-2" data-name="computer"><polygon id="light-3" data-name="light" class="cls-20" points="223.93 72.82 165.33 62.82 165.33 120.43 223.93 98.99 223.93 72.82"/><rect id="keyboard-2" data-name="keyboard" class="cls-3" x="204.25" y="121.76" width="3.94" height="24.76" transform="translate(340.36 -72.07) rotate(90)"/><g id="monitor"><rect id="stand-4" data-name="stand" class="cls-15" x="237.31" y="116.3" width="3.94" height="35.7" transform="translate(373.42 -105.13) rotate(90)"/><polygon id="bend" class="cls-15" points="245.1 84.54 227.1 84.54 227.1 87.54 245.1 87.54 245.1 132.54 248.1 132.54 248.1 87.54 248.1 84.54 245.1 84.54"/><path class="cls-15" d="M226.81,56.2v52.9a62.24,62.24,0,0,0,0-52.9Z"/><rect class="cls-15" x="221.96" y="49.46" width="3.94" height="66.39"/></g></g><g id="woman1"><path id="leftFoot" class="cls-19" d="M110,229.76c-.16,1.45-.46,11,2.44,11.69s3.44,0,4.13-.91-1.45-13.78-2.68-13.31A24.65,24.65,0,0,0,110,229.76Z"/><path id="rightFoot" class="cls-19" d="M81.27,232.75c.67,1.59,2,7.28,3.82,8.3s-6.12,2.65-7,1.37-1.09-9,0-10.83S81.27,232.75,81.27,232.75Z"/><path id="shoe" class="cls-3" d="M77.11,239.14c-1.52-2.57.43,7.7-1.15,9.39-.57.61,1.74,1.22,2.28.46s0-1.84.82-1.92-.08,1.78.91,2,13.59,3.6,15,2.2c2.78-2.79-8.78-5.54-9.71-11.28C84.78,236.9,81.58,246.75,77.11,239.14Z"/><path id="shoe-2" data-name="shoe" class="cls-3" d="M109.3,235.11c-1.8-2.38,1.31,7.6-.06,9.45-.5.68,1.86,1,2.31.2s-.2-1.82.59-2,.13,1.78,1.13,1.85,13.92,2,15.15.46c2.45-3.08-9.35-4.5-10.93-10.1C116.66,232,114.61,242.16,109.3,235.11Z"/><path id="leftLeg-2" data-name="leftLeg" class="cls-3" d="M114.57,118.62c1.91,3.83,1.45,111.6,1.07,112.36s-5,3.31-5.73,1.77c-15.13-30.36-5-68.27-9.33-75.45-3.74-6.29-22.62-41-18.8-40.93S114.57,118.62,114.57,118.62Z"/><path id="rightLeg-2" data-name="rightLeg" class="cls-3" d="M77.43,117.63c-2.23,8.41,4.27,52.13,7.33,54.71.84.7-11.39,35.25-7.65,64.91.35,2.75,7.51,4.58,7.69,0s9.36-56.9,10.89-58.41,1.84-3.54,2.45-6.5S119.23,122.9,118,121.68,81.17,103.49,77.43,117.63Z"/><path id="hand-2" data-name="hand" class="cls-19" d="M207.59,68.41c-1-.85-18,5.69-19.49,8.31s-29.27,8-31.41,6.52-5.9,9.17-4.44,9.17c15.21,0,33.48-7,35.16-8.26s6.42.69,7.8.54,9.63-1.3,7.34-5c-1.64-2.67-5.81-4-4.59-4.58S208.13,68.87,207.59,68.41Z"/><path id="face-3" data-name="face" class="cls-19" d="M136.2,14.06c-.48-2.29-7.49-2.6-13.14-1.83s-6.42,8.25-6.58,9.78c-.08.8,1.65,4.2,3.85,7.08v.1l1.06,7.58c.31,2.28,2.52,2.82,3.39.83l1.89-4.32C137.71,29.65,136.94,17.55,136.2,14.06Z"/><path id="hair-4" data-name="hair" class="cls-8" d="M137.27,5c1.38-5.35-5.93.39-9-1.52-1.82-1.14-3.16-1.14-4.18-.64A11,11,0,0,0,116.27,0c-5.18,0-9.38,2.91-9.38,6.5,0,3.15,3.25,5.78,7.55,6.37-2.62,9.57,5.73,16.68,8.46,16.94,3.21.3-1.83-5.2-4.84-7.8s5.91-.76,5.91-4.43,12.12.54,13.47-.15C148.52,11.77,135.9,10.39,137.27,5Z"/><path class="cls-4" d="M121.22,34.85c-12-12.54-49.3,57.33-52,90.35-1,12.3,20.64-13.76,16.28-6.65s2.29,9.63,2.75,8,1.84,2.33,3.21,1.05,4.36,2.45,6.65.93,7.34,2,8.49.37,3.67-7.16,6.19-5.33,8.25,8,7.34,1.84.38-31.09,10.31-43.34c2-2.48,18.81,13.07,21.56,10.78s7.79-9.63,6-10.32-26.23-20.8-24.54-24.77-4.25-23.84-6.14-21.55S123.92,37.66,121.22,34.85Z"/></g></g></g></g></svg>